<?xml version="1.0" encoding="utf-8"?>
<!-- Generator: Adobe Illustrator 21.1.0, SVG Export Plug-In . SVG Version: 6.00 Build 0)  -->
<svg version="1.1" id="Layer_1" xmlns="http://www.w3.org/2000/svg" xmlns:xlink="http://www.w3.org/1999/xlink" x="0px" y="0px"
	 viewBox="0 0 400 240" style="enable-background:new 0 0 400 240;" xml:space="preserve">
<style type="text/css">
	.st0{fill:#888888;}
	.st1{fill:#888888;}
</style>
<path class="st0" d="M307.65,44.1c-2.21,0-200.17-0.09-202.64,0c-2.11,0.08-3.76,1.91-3.31,4.07c0.22,1.03,0.92,1.72,1.75,2.27
	c1.29,0.85,99.03,63.78,100.5,64.73c1.45,0.94,3,1.09,4.52,0.13c3.9-2.48,101.17-65.14,101.45-65.4
	C312.14,47.88,310.62,44.1,307.65,44.1z"/>
<g>
	<path class="st0" d="M103,98.4c-1.99,0-3.94,0.15-5.86,0.43C97.07,98.84,97,98.79,97,98.71V65.25c0-3.94,4.35-5.9,7.52-3.94
		c0.7,0.43,1.38,0.89,2.06,1.34c3.74,2.42,92.72,60.08,95.83,62.1c1.43,0.93,2.87,1.7,4.7,1.24c0.99-0.25,1.83-0.87,2.67-1.42
		c3.26-2.11,92.32-59.82,95.91-62.14c0.6-0.39,1.2-0.8,1.81-1.17c3.28-2,7.31,0.24,7.42,4.06c0.07,2.56,0,106.44,0,111.67
		c0,2.84,0.66,6.87-1.88,8.82c-1.33,1.01-2.78,0.98-4.32,0.98c-1.73,0-3.45,0-5.18,0c-4.62,0-113.82,0.22-169.41,0.22
		c-0.07,0-0.13-0.06-0.13-0.13l0.01-24.21c0-0.03,0.01-0.06,0.03-0.08c5-6.3,8.12-14.15,8.51-22.72
		c1.03-22.11-16.72-41.08-38.86-41.46c-2.28-0.04-4.52,0.12-6.7,0.45"/>
</g>
<path class="st1" d="M125.85,115.6c-12.07-12.37-31.89-12.61-44.26-0.54c-12.37,12.07-12.61,31.89-0.54,44.26
	c0.18,0.18,0.36,0.36,0.54,0.54v8v11.09v23.95c0,3.05,2.47,5.52,5.52,5.52c1.61,0,3.15-0.71,4.2-1.93l12.14-14.13l12.14,14.13
	c1.98,2.32,5.47,2.59,7.78,0.61c1.23-1.05,1.93-2.58,1.93-4.2v-23.95v-11.09v-8C137.67,147.78,137.92,127.97,125.85,115.6z
	 M114.27,187.84l-6.62-7.73c-1.98-2.32-5.47-2.59-7.78-0.61c-0.22,0.19-0.42,0.39-0.61,0.61l-6.62,7.73v-20.97
	c6.97,2.63,14.66,2.63,21.64,0V187.84z M103.45,157.76h-0.22c-11.19,0-20.26-9.07-20.26-20.26c0-11.19,9.07-20.26,20.26-20.26
	c11.19,0,20.26,9.07,20.26,20.26C123.48,148.6,114.55,157.64,103.45,157.76z"/>
</svg>
