<?xml version="1.0" encoding="UTF-8" standalone="no"?>
<!-- Generator: Adobe Illustrator 21.1.0, SVG Export Plug-In . SVG Version: 6.00 Build 0)  -->

<svg
   version="1.1"
   id="Layer_1"
   viewBox="0 0 400 240"
   xml:space="preserve"
   sodipodi:docname="pec.svg"
   inkscape:version="1.4.3 (0d15f75042, 2025-12-25)"
   xmlns:inkscape="http://www.inkscape.org/namespaces/inkscape"
   xmlns:sodipodi="http://sodipodi.sourceforge.net/DTD/sodipodi-0.dtd"
   xmlns="http://www.w3.org/2000/svg"
   xmlns:svg="http://www.w3.org/2000/svg"><defs
   id="defs3" /><sodipodi:namedview
   id="namedview3"
   pagecolor="#ffffff"
   bordercolor="#000000"
   borderopacity="0.25"
   inkscape:showpageshadow="2"
   inkscape:pageopacity="0.0"
   inkscape:pagecheckerboard="0"
   inkscape:deskcolor="#d1d1d1"
   inkscape:zoom="2.2956039"
   inkscape:cx="199.07616"
   inkscape:cy="124.58595"
   inkscape:window-width="1920"
   inkscape:window-height="1008"
   inkscape:window-x="0"
   inkscape:window-y="0"
   inkscape:window-maximized="1"
   inkscape:current-layer="Layer_1" />
<style
   type="text/css"
   id="style1">
	.st0{fill:#888888;}
	.st1{fill:#888888;}
</style>
<path
   class="st0"
   d="m 394.20166,0.06408258 c -3.85018,0 -348.729663,-0.1441858 -353.032821,0 -3.67598,0.12817892 -6.550545,3.06003392 -5.766576,6.52059262 0.383283,1.6501735 1.602797,2.7556329 3.048792,3.6367958 2.247411,1.361791 172.526855,102.182669 175.087845,103.704659 2.52614,1.506 5.22649,1.74631 7.8746,0.20826 6.79445,-3.97325 176.25509,-104.361548 176.74288,-104.7780964 3.86761,-3.2362651 1.21955,-9.29224604 -3.95472,-9.29224604 z"
   id="path1"
   style="stroke-width:1.67069" />
<g
   id="g2"
   transform="matrix(1.6730068,0,0,1.5235962,-126.99242,-73.384578)">
	<path
   class="st0"
   d="m 103,98.4 c -1.99,0 -3.94,0.15 -5.86,0.43 C 97.07,98.84 97,98.79 97,98.71 V 65.25 c 0,-3.94 4.35,-5.9 7.52,-3.94 0.7,0.43 1.38,0.89 2.06,1.34 3.74,2.42 92.72,60.08 95.83,62.1 1.43,0.93 2.87,1.7 4.7,1.24 0.99,-0.25 1.83,-0.87 2.67,-1.42 3.26,-2.11 92.32,-59.82 95.91,-62.14 0.6,-0.39 1.2,-0.8 1.81,-1.17 3.28,-2 7.31,0.24 7.42,4.06 0.07,2.56 0,106.44 0,111.67 0,2.84 0.66,6.87 -1.88,8.82 -1.33,1.01 -2.78,0.98 -4.32,0.98 -1.73,0 -3.45,0 -5.18,0 -4.62,0 -113.82,0.22 -169.41,0.22 -0.07,0 -0.13,-0.06 -0.13,-0.13 l 0.01,-24.21 c 0,-0.03 0.01,-0.06 0.03,-0.08 5,-6.3 8.12,-14.15 8.51,-22.72 1.03,-22.11 -16.72,-41.08 -38.86,-41.46 -2.28,-0.04 -4.52,0.12 -6.7,0.45"
   id="path2" />
</g>
<path
   class="st1"
   d="M 89.673728,98.573188 C 69.517021,79.726281 36.4179,79.360617 15.760212,97.750445 -4.8975112,116.14024 -5.2983067,146.33793 14.858419,165.18479 c 0.300601,0.27427 0.601191,0.5485 0.901793,0.82274 v 12.18879 16.89667 36.49012 c 0,4.64697 4.124854,8.41024 9.218313,8.41024 2.688684,0 5.260447,-1.08172 7.013931,-2.94052 l 20.273607,-21.52842 20.273628,21.52842 c 3.306567,3.53474 9.13482,3.9461 12.992468,0.92938 2.054098,-1.59976 3.223085,-3.93086 3.223085,-6.3991 V 195.09299 178.19632 166.00753 C 109.41296,147.6025 109.83045,117.42004 89.673728,98.573188 Z M 70.335321,208.63776 59.280005,196.86037 c -3.306578,-3.53476 -9.134819,-3.94611 -12.992479,-0.92939 -0.367391,0.28949 -0.701399,0.5942 -1.018692,0.92939 l -11.055293,11.77739 v -31.94981 c 11.639781,4.00706 24.481965,4.00706 36.138471,0 v 31.94981 z M 52.266063,162.80799 h -0.367392 c -18.687119,0 -33.833881,-13.81901 -33.833881,-30.86806 0,-17.04903 15.146762,-30.86807 33.833881,-30.86807 18.687129,0 33.833892,13.81904 33.833892,30.86807 -0.0172,16.91193 -14.929667,30.68524 -33.4665,30.86806 z"
   id="path3"
   style="stroke-width:1.59513" />
</svg>
