<svg width="277" height="136" viewBox="0 0 277 136" fill="none" xmlns="http://www.w3.org/2000/svg">
<g clip-path="url(#clip0_1893_2036)">
<path d="M53.49 6.54C53.49 2.55 56.25 0 59.92 0C63.06 0 65.42 1.68 65.42 4.52C65.42 4.73 65.4 5.03 65.38 5.26H63.36C63.38 5.03 63.38 4.82 63.38 4.66C63.38 2.9 61.87 1.9 59.96 1.9C57.56 1.9 55.78 3.7 55.78 6.57C55.78 9.44 57.61 11.07 59.86 11.07C61.84 11.07 63.32 9.92 63.32 8.24V7.95H59.46V6.51H65.51V12.64H63.62C63.66 12.15 63.72 11.26 63.73 10.41H63.71C63.33 11.84 61.93 12.83 59.67 12.83C56.11 12.83 53.49 10.45 53.49 6.55V6.54Z" fill="black"/>
<path d="M75.4399 0.189941H77.6899V12.6299H75.4399V0.189941Z" fill="black"/>
<path d="M96.17 9.82994H90.37L89.31 12.6299H86.96L92.03 0.189941H94.79L99.84 12.6299H97.21L96.17 9.82994ZM95.6 8.30994L93.29 2.10994H93.25L90.93 8.30994H95.6Z" fill="black"/>
<path d="M109.03 0.189941H112.43L118.35 9.63994H118.39L118.35 0.189941H120.49V12.6299H117.8L111.17 2.07994H111.15L111.17 12.6299H109.03V0.189941Z" fill="black"/>
<path d="M130.03 6.43C130.03 2.46 132.68 0 136.42 0C139.69 0 142.01 1.95 142.01 4.82C142.01 4.95 141.99 5.2 141.97 5.42H139.97C139.99 5.25 139.99 5.1 139.99 5.01C139.99 3.1 138.5 1.89 136.49 1.89C134.07 1.89 132.33 3.65 132.33 6.43C132.33 9.21 134.14 10.93 136.49 10.93C138.57 10.93 140.02 9.74 140.02 7.94V7.64H142.04V8.07C142.04 10.89 139.69 12.82 136.41 12.82C132.71 12.82 130.02 10.38 130.02 6.43H130.03Z" fill="black"/>
<path d="M160.05 9.82994H154.25L153.19 12.6299H150.84L155.91 0.189941H158.67L163.72 12.6299H161.09L160.05 9.82994ZM159.49 8.30994L157.18 2.10994H157.14L154.82 8.30994H159.49Z" fill="black"/>
<path d="M172.91 0.189941H178.37C181.57 0.189941 183.21 1.56994 183.21 3.79994C183.21 5.40994 182.51 6.49994 181.05 6.76994V6.80994C182.56 7.03994 183.13 8.08994 183.13 9.58994V12.6299H180.84V9.61994C180.84 8.36994 180.33 7.68994 178.67 7.68994H175.17V12.6199H172.9V0.189941H172.91ZM178.41 6.19994C180.25 6.19994 181.04 5.39994 181.04 4.07994C181.04 2.82994 180.17 2.07994 178.36 2.07994H175.19V6.19994H178.42H178.41Z" fill="black"/>
<path d="M192.94 0.189941H195.21V10.7399H201.37V12.6299H192.94V0.189941Z" fill="black"/>
<path d="M210.12 6.35C210.12 2.4 212.96 0 216.57 0C220.18 0 223.03 2.4 223.03 6.35C223.03 10.3 220.2 12.82 216.57 12.82C212.94 12.82 210.12 10.38 210.12 6.35ZM220.73 6.35C220.73 3.57 218.88 1.89 216.57 1.89C214.26 1.89 212.43 3.57 212.43 6.35C212.43 9.13 214.28 10.92 216.57 10.92C218.86 10.92 220.73 9.2 220.73 6.35Z" fill="black"/>
<path d="M0 24.78H24.45L31.21 31.54V69.39L24.45 76.15H10.82V110.4H0V24.78ZM20.39 64.89V36.05L18.14 33.8H10.82V67.15H18.14L20.39 64.9V64.89Z" fill="black"/>
<path d="M70.08 103.64L63.32 110.4H44.5L37.74 103.64V31.54L44.5 24.78H63.32L70.08 31.54V103.64ZM50.81 34.02L48.56 36.27V98.91L50.81 101.16H57.01L59.26 98.91V36.27L57.01 34.02H50.81Z" fill="black"/>
<path d="M78.3101 110.4V24.78H89.1301V101.16H103.44V110.4H78.3201H78.3101Z" fill="black"/>
<path d="M109.41 24.78H136.11V34.02H120.23V62.41H134.09V71.65H120.23V101.17H136.34V110.41H109.41V24.78Z" fill="black"/>
<path d="M185.35 31.54L192.11 24.78H209.8L216.56 31.54V49.68H205.74V36.27L203.49 34.02H198.42L196.17 36.27V98.91L198.42 101.16H203.49L205.74 98.91V75.48H200.33V65.79H216.55V103.64L209.79 110.4H192.1L185.34 103.64V31.54H185.35Z" fill="black"/>
<path d="M235.38 62.75H246.76V24.78H257.57V110.4H246.76V72.21H235.38V110.4H224.56V24.78H235.38V62.75Z" fill="black"/>
<path d="M266.14 24.78H276.96V110.4H266.14V24.78Z" fill="black"/>
<path d="M167.16 24.78V69.66L153.3 33.52V24.78H143.17V110.4H153.3V61.46L167.16 97.91V110.4H177.28V24.78H167.16Z" fill="black"/>
<path d="M73.8799 122.49H79.2999C80.2999 122.49 81.1699 122.66 81.8999 122.99C82.6299 123.32 83.2299 123.78 83.6899 124.35C84.1499 124.92 84.4999 125.6 84.7199 126.37C84.9499 127.14 85.0599 127.96 85.0599 128.84C85.0599 129.72 84.9499 130.54 84.7199 131.31C84.4899 132.08 84.1499 132.75 83.6899 133.33C83.2299 133.9 82.6299 134.36 81.8999 134.69C81.1699 135.02 80.2999 135.19 79.2999 135.19H73.8799V122.51V122.49ZM76.1599 133.36H78.4099C79.2999 133.36 80.0299 133.24 80.5999 133.01C81.1699 132.78 81.6099 132.46 81.9399 132.05C82.2599 131.64 82.4799 131.16 82.5999 130.61C82.7199 130.06 82.7699 129.46 82.7699 128.82C82.7699 128.18 82.7099 127.59 82.5999 127.03C82.4799 126.48 82.2599 126 81.9399 125.59C81.6199 125.18 81.1699 124.86 80.5999 124.63C80.0299 124.4 79.2999 124.28 78.4099 124.28H76.1599V133.34V133.36Z" fill="black"/>
<path d="M96.7099 122.49H99.1399L104.17 135.17H101.72L100.49 131.81H95.2699L94.0399 135.17H91.6799L96.6899 122.49H96.7099ZM95.8999 130.13H99.8899L97.9299 124.68H97.8799L95.8999 130.13Z" fill="black"/>
<path d="M113.09 122.49H115.38V133.26H122.02V135.18H113.09V122.5V122.49Z" fill="black"/>
<path d="M140.33 124.8C140.77 124.8 141.2 124.76 141.61 124.69C142.02 124.62 142.4 124.5 142.74 124.33C143.08 124.16 143.36 123.95 143.6 123.69C143.84 123.43 143.99 123.11 144.07 122.73H145.77V135.17H143.48V126.39H140.33V124.79V124.8Z" fill="black"/>
<path d="M159.06 132.03C159.11 132.54 159.29 132.95 159.62 133.26C159.94 133.57 160.38 133.73 160.93 133.73C161.48 133.73 161.94 133.59 162.28 133.29C162.62 133 162.87 132.64 163.06 132.21C163.24 131.78 163.37 131.32 163.44 130.82C163.51 130.33 163.56 129.88 163.6 129.46L163.56 129.42C163.28 129.91 162.9 130.28 162.41 130.53C161.92 130.78 161.39 130.91 160.8 130.91C160.21 130.91 159.64 130.81 159.14 130.61C158.65 130.41 158.22 130.13 157.87 129.77C157.52 129.41 157.24 128.97 157.05 128.46C156.85 127.94 156.76 127.37 156.76 126.73C156.76 126.13 156.86 125.57 157.05 125.05C157.25 124.53 157.53 124.08 157.91 123.7C158.29 123.32 158.75 123.02 159.3 122.8C159.85 122.59 160.47 122.48 161.17 122.48C162.07 122.48 162.82 122.65 163.4 122.99C163.99 123.33 164.45 123.79 164.78 124.38C165.12 124.97 165.35 125.66 165.48 126.45C165.61 127.24 165.68 128.09 165.68 128.99C165.68 129.74 165.6 130.49 165.43 131.25C165.27 132.01 164.99 132.7 164.62 133.32C164.24 133.94 163.75 134.45 163.13 134.84C162.51 135.23 161.75 135.43 160.85 135.43C160.34 135.43 159.86 135.35 159.4 135.18C158.95 135.01 158.55 134.78 158.2 134.49C157.85 134.19 157.57 133.84 157.35 133.42C157.13 133.01 157.01 132.54 156.98 132.03H159.07H159.06ZM161.06 124.18C160.68 124.18 160.35 124.25 160.07 124.38C159.79 124.52 159.56 124.7 159.37 124.94C159.19 125.18 159.05 125.45 158.96 125.76C158.87 126.07 158.82 126.39 158.82 126.72C158.82 127.05 158.87 127.39 158.96 127.71C159.05 128.02 159.19 128.3 159.37 128.54C159.55 128.78 159.78 128.97 160.07 129.12C160.35 129.27 160.68 129.34 161.06 129.34C161.44 129.34 161.79 129.27 162.08 129.13C162.37 128.99 162.61 128.8 162.8 128.55C162.99 128.31 163.13 128.03 163.23 127.72C163.33 127.41 163.38 127.08 163.38 126.73C163.38 126.38 163.33 126.08 163.23 125.77C163.13 125.46 162.99 125.19 162.8 124.96C162.61 124.73 162.37 124.54 162.08 124.4C161.79 124.26 161.45 124.19 161.06 124.19V124.18Z" fill="black"/>
<path d="M174.29 122.74H183.05V124.43C182.38 125.16 181.77 125.93 181.22 126.71C180.67 127.5 180.19 128.33 179.78 129.21C179.37 130.09 179.04 131.03 178.78 132.01C178.52 132.99 178.35 134.05 178.27 135.17H175.98C176.05 134.19 176.23 133.22 176.5 132.26C176.77 131.3 177.13 130.37 177.56 129.47C177.99 128.57 178.5 127.71 179.07 126.88C179.64 126.05 180.26 125.28 180.92 124.55H174.28V122.74H174.29Z" fill="black"/>
<path d="M198.2 125.88C198.15 125.37 197.96 124.96 197.64 124.65C197.32 124.34 196.88 124.18 196.33 124.18C195.95 124.18 195.63 124.25 195.35 124.38C195.08 124.52 194.84 124.7 194.65 124.92C194.46 125.14 194.31 125.4 194.19 125.69C194.07 125.98 193.98 126.29 193.91 126.61C193.84 126.93 193.78 127.25 193.75 127.56C193.72 127.87 193.69 128.17 193.67 128.44L193.71 128.48C193.99 127.98 194.38 127.61 194.87 127.37C195.36 127.13 195.9 127.01 196.47 127.01C197.1 127.01 197.67 127.12 198.17 127.33C198.67 127.54 199.09 127.84 199.44 128.21C199.79 128.58 200.05 129.02 200.24 129.53C200.43 130.04 200.51 130.59 200.51 131.18C200.51 131.77 200.41 132.34 200.21 132.86C200.01 133.38 199.72 133.83 199.34 134.21C198.96 134.59 198.51 134.89 197.99 135.11C197.47 135.32 196.89 135.43 196.25 135.43C195.31 135.43 194.54 135.26 193.94 134.92C193.34 134.58 192.86 134.12 192.51 133.53C192.16 132.94 191.92 132.26 191.79 131.47C191.66 130.68 191.59 129.83 191.59 128.92C191.59 128.17 191.67 127.42 191.84 126.66C192 125.9 192.28 125.21 192.65 124.59C193.03 123.97 193.52 123.46 194.14 123.07C194.76 122.68 195.51 122.48 196.42 122.48C196.93 122.48 197.41 122.56 197.87 122.73C198.32 122.9 198.72 123.13 199.07 123.42C199.42 123.72 199.7 124.07 199.92 124.49C200.14 124.9 200.26 125.37 200.29 125.88H198.2ZM196.18 133.73C196.56 133.73 196.89 133.66 197.17 133.51C197.45 133.36 197.69 133.17 197.87 132.93C198.06 132.69 198.2 132.42 198.29 132.1C198.38 131.79 198.43 131.46 198.43 131.13C198.43 130.8 198.38 130.48 198.29 130.17C198.2 129.86 198.06 129.59 197.87 129.36C197.68 129.13 197.44 128.94 197.17 128.8C196.89 128.66 196.56 128.59 196.18 128.59C195.8 128.59 195.47 128.66 195.18 128.79C194.89 128.93 194.65 129.11 194.46 129.34C194.27 129.57 194.12 129.84 194.02 130.15C193.92 130.46 193.87 130.78 193.87 131.13C193.87 131.48 193.92 131.8 194.02 132.11C194.12 132.42 194.26 132.69 194.46 132.94C194.66 133.19 194.9 133.37 195.18 133.52C195.47 133.66 195.8 133.73 196.18 133.73Z" fill="black"/>
</g>
<defs>
<clipPath id="clip0_1893_2036">
<rect width="276.96" height="135.42" fill="black"/>
</clipPath>
</defs>
</svg>
