<svg id="Layer_1" data-name="Layer 1" xmlns="http://www.w3.org/2000/svg" viewBox="0 0 169 50"><defs><style>.cls-1{fill:#4a5161}</style></defs><title>mgam-logo-169x50</title><path class="cls-1" d="M30.74 3.16h9.16l6.78 12.5 6.78-12.5h9.16v19.57h-5.78v-14l-7.9 14h-4.53l-7.78-14h-.12v14h-5.77V3.16zm35.63 11.11c0-4.55 3-5.43 5.65-5.43h7.78c2.63 0 5.65.88 5.65 5.43v3.28c0 4.55-3 5.43-5.65 5.43H72c-2.63 0-5.65-.88-5.65-5.43v-3.28zm5.14 2.27c0 1.89 1.13 2.65 3.51 2.65h1.25c3.39 0 3.89-.51 3.89-2.27V15c0-1.77-.63-2.27-3.89-2.27H75c-2.38 0-3.51.51-3.51 2.65v1.14zm17.31-7.7h4.89v2.65c.5-2.15 2.76-2.78 5-2.78 3.76 0 5.27 1.64 5.27 5.43v1.26h-4.49c0-1.77-.5-2.65-2.51-2.65-1.76 0-3 .63-3 2.4v7.58h-5.15V8.84zm17.94 5.3c0-4.29 2.13-5.43 6.27-5.43h3c2.63 0 3.26.38 4.52 2.15v-2h4.89v12.86c0 2.78-.88 5.68-7.4 5.68h-5.77c-3.51 0-5.39-.76-5.39-4.29h5.27a1.07 1.07 0 0 0 1.25 1h3.76c2.26 0 3.39-.63 3.39-3v-.78c-1 1-1.88 1.52-4.64 1.52h-2.76c-5 0-6.52-2-6.52-5.81zm10.66 3.91c2.63 0 3.14-.63 3.14-2.78s-.5-2.78-3.14-2.78h-2.62c-2.63 0-3.14.63-3.14 2.78s.5 2.78 3.14 2.78h2.63zm11-.25c0-3.79 2.63-3.91 7.53-3.91 2.76 0 4.39.13 5.39 1.14v-1.27c0-1.39-.5-1.77-2.51-1.77h-3c-1.51 0-1.88.13-2 1.14H129c0-3.79 1.76-4.42 6.15-4.42h6c3.64 0 5.39 1.64 5.39 4.92v9.09h-4.89v-1.63c-1.51 1.52-1.88 1.77-4.52 1.77h-3.51c-3.14 0-5.14-.63-5.14-3.91V17.8zm9.16 1.89c3.64 0 3.89-.51 3.89-1.52s-.38-1.39-3.14-1.39h-2.26c-2.13 0-2.63.51-2.63 1.64 0 .88.63 1.26 2.76 1.26h1.38zm12.6-10.85h5.14v2.27c.88-1.89 2.76-2.53 5.52-2.53 3.14 0 7.65.13 7.65 6.06v8h-5.14v-7.87c0-1.39-1.13-2-3.39-2h-1.25c-2.26 0-3.51 1-3.51 3v6.94h-5.14zM35.38 32.58h1.38l4.77 8.08h-1.26l-1-1.64h-6.4l-1 1.64h-1.26zm.62.75l-2.76 4.55h5.39zm13.3 7.2h-.87v-.88a2 2 0 0 1-2 1H45c-1.63 0-2.89-.51-2.89-2.4v-1c0-1.77.63-2.53 2.89-2.53h1.51c1.13 0 1.63.25 1.76.76v-3.16h.88zm-6.15-2.27c0 1.14.38 1.64 1.88 1.64h1.63c1.51 0 1.88-.51 1.88-1.64v-1c0-1.39-.75-1.64-2-1.64H45c-1.38 0-1.88.25-1.88 1.64v1zm7.15-3.41h.88l2.76 4.92 2.76-4.92h1l-3.14 5.68h-1.11zm14.06 5.05c-.25.51-.5.63-2 .63H60.1c-1.51 0-1.76-.63-1.76-1.64v-.38c0-1.26.88-1.52 2.63-1.52h1.51c1.25 0 1.63.13 2 .63v-1c0-1-.63-1.14-2.13-1.14H61c-1.25 0-1.51.38-1.51.76v.25h-.9v-.25c0-1 .63-1.52 2.38-1.52h1.51c1.76 0 2.89.25 2.89 1.89v3.79h-.88v-.5h-.13zm0-1.14c0-.76-.63-.88-2.13-.88h-1.51c-1.25 0-1.63.25-1.63.88V39c0 .63.25.88 1.51.88H62c1.63 0 2.38-.13 2.38-.76v-.36zm2.51-3.91h.88v1c.38-.88 1.13-1 2.26-1h1.51c1.76 0 2.38.88 2.38 1.89v3.91H73V37c0-.76-.25-1.39-2-1.39h-.24c-2.26 0-2.76.51-2.76 1.64v3.15h-.88v-5.68h-.25v.13zm8.28 2.27c0-2 1.51-2.27 2.76-2.27h1.63c1.76 0 2.51.63 2.51 1.89v.13h-.87v-.13c0-.88-.5-1.14-1.63-1.14h-1.64c-.88 0-1.63.13-1.63 1.64v1.14c0 1.26.75 1.64 1.88 1.64h1.64c.88 0 1.63-.25 1.63-1.14v-.37h.87v.13c0 1.52-.63 1.89-2.51 1.89h-2.25a2.1 2.1 0 0 1-2.38-2.27v-1.14zm8 0c0-2 1.51-2.27 2.76-2.27h1.51c1.63 0 2.89.51 2.89 2.53V38h-6.12v.38c0 1.26.5 1.64 2.26 1.64h1.38c1.25 0 1.63-.13 1.63-1h.88v.13c0 1.26-1 1.64-2.76 1.64h-1.64c-1.25 0-2.63-.25-2.63-2.27v-1.4h-.13zm6.27-.38c0-.51-.5-1.14-1.88-1.14h-1.35c-1.51 0-1.76.25-1.88 1.52h5.27zm9.28 3.79h-.84v-.88a2 2 0 0 1-2 1h-1.39c-1.63 0-2.89-.51-2.89-2.4v-1c0-1.77.63-2.53 2.89-2.53H96c1.13 0 1.63.25 1.76.76v-3.16h.88zm-6.27-2.27c0 1.14.38 1.64 1.88 1.64H96c1.51 0 1.88-.51 1.88-1.64v-1c0-1.39-.75-1.64-2-1.64H94.6c-1.38 0-1.88.25-1.88 1.64v1h-.25zm11.17-5.68h1.76l4.52 6.69 4.77-6.69h1.76v8h-1.11v-7.12l-4.89 7.07h-.75l-4.89-7.07v7.07h-1.13v-8zM124 39.9c-.25.51-.5.63-2 .63h-2.26c-1.51 0-1.76-.63-1.76-1.64v-.38c0-1.26.88-1.52 2.63-1.52h1.51c1.25 0 1.63.13 2 .63v-1c0-1-.63-1.14-2.13-1.14h-1.38c-1.25 0-1.51.38-1.51.76v.25h-.88v-.25c0-1 .63-1.52 2.38-1.52h1.51c1.76 0 2.89.25 2.89 1.89v3.79h-1v-.5zm0-1.14c0-.76-.63-.88-2.13-.88h-1.51c-1.25 0-1.63.25-1.63.88V39c0 .63.25.88 1.51.88h1.25c1.63 0 2.38-.13 2.38-.76zm3-3.16h-1.25v-.75H127v-1.39h.88v1.39h3.76v.76h-3.76v2.78a1.16 1.16 0 0 0 1.38 1.39h.38c1.25 0 1.51-.25 1.51-1.52v-.51h.75v.51c0 1.14-.13 2-2.13 2h-.5c-1.76 0-2.13-.88-2.13-1.77v-2.9H127zm5.65 1.52c0-2 1.51-2.27 2.76-2.27h1.51c1.63 0 2.89.51 2.89 2.53V38h-6.15v.38c0 1.26.5 1.64 2.26 1.64h1.38c1.25 0 1.63-.13 1.63-1h.88v.13c0 1.26-1 1.64-2.76 1.64h-1.63c-1.25 0-2.63-.25-2.63-2.27v-1.4h-.13zm6.15-.38c0-.51-.5-1.14-1.88-1.14h-1.42c-1.51 0-1.76.25-1.88 1.52h5.27zm2.38-1.89h.82v.76a1.83 1.83 0 0 1 1.63-.88h.88c1.76 0 2.38.51 2.38 1.89v.63H146V37c0-1.39-.38-1.64-1.88-1.64h-.5a1.36 1.36 0 0 0-1.51 1.39v3.65h-.88zm7.15-2.27h.88v1h-.91v-1zm0 2.27h.88v5.68h-.91v-5.68zm8.41 5.05c-.25.51-.5.63-2 .63h-2.26c-1.51 0-1.76-.63-1.76-1.64v-.38c0-1.26.88-1.52 2.63-1.52h1.51c1.25 0 1.63.13 2 .63v-1c0-1-.63-1.14-2.13-1.14h-1.38c-1.25 0-1.51.38-1.51.76v.25h-.75v-.25c0-1 .63-1.52 2.38-1.52h1.51c1.76 0 2.89.25 2.89 1.89v3.79H157zm0-1.14c0-.76-.63-.88-2.13-.88h-1.38c-1.25 0-1.63.25-1.63.88V39c0 .63.25.88 1.51.88h1.25c1.63 0 2.38-.13 2.38-.76v-.36zm2.63-6.19h.88v8.08h-.88v-8.07zm2.51 6.06h.88v.13c0 .63.38 1 1.38 1h2c1.51 0 1.88 0 1.88-.88 0-.51-.13-.76-1.25-.76h-2.89c-1.38 0-1.76-.51-1.76-1.52v-.36c0-.88.5-1.52 2.76-1.52h1.51c2.13 0 2.51.51 2.51 1.39v.38h-1c0-.88-.5-.88-1.63-.88h-1.63c-1.38 0-1.63.13-1.63.76v.25c0 .51.13.63 1.13.63h2.51c1.51 0 2.38.13 2.38 1.64s-1.51 1.64-2.63 1.64h-1.63c-1.38 0-2.76 0-2.76-1.64v-.25h-.13zM0 22.73V0h2.76l9.16 17.17S21.2.13 21.08 0h2.76v22.73H0zm0 3h23.71v2.78S5.77 32.45 5.77 37.88c0 6.44 17.94 9.34 17.94 9.34V50H0V25.76z"/></svg>