<?xml version="1.0" encoding="UTF-8"?>
<svg xmlns="http://www.w3.org/2000/svg" xmlns:xlink="http://www.w3.org/1999/xlink" width="123" height="59.786" viewBox="0 0 123 59.786">
  <defs>
    <clipPath id="clip-path">
      <rect id="Rectangle_20" data-name="Rectangle 20" width="123" height="59.786" transform="translate(0 0)" fill="none"></rect>
    </clipPath>
  </defs>
  <g id="Group_120" data-name="Group 120" transform="translate(-2034.203 -710.488)">
    <g id="Group_119" data-name="Group 119" transform="translate(2034.203 710.488)" clip-path="url(#clip-path)">
      <path id="Path_92" data-name="Path 92" d="M2034.2,861.921v-8.97h1.7v8.757c0,1.024.377,1.417,1.292,1.417h2.4c.916,0,1.277-.378,1.277-1.319v-8.854h1.718v8.97a2.744,2.744,0,0,1-1.718,2.708,2.545,2.545,0,0,1-1.015.215h-2.925a2.69,2.69,0,0,1-1.032-.215,2.744,2.744,0,0,1-1.7-2.708" transform="translate(-2034.203 -805.06)" fill="#012d5b"></path>
      <rect id="Rectangle_19" data-name="Rectangle 19" width="1.701" height="11.893" transform="translate(21.836 47.892)" fill="#012d5b"></rect>
      <path id="Path_93" data-name="Path 93" d="M2108.351,854.671v-1.717h6.8v1.717H2112.6v10.175h-1.715V854.671Z" transform="translate(-2083.425 -805.062)" fill="#012d5b"></path>
      <path id="Path_94" data-name="Path 94" d="M2166.007,863.129c.753,0,1.179-.444,1.179-1.436v-5.666c0-.082-.018-.166-.018-.249-.08-.824-.342-1.105-1.209-1.105h-3.845v8.456Zm-5.594,1.72V852.956h6a2.522,2.522,0,0,1,2.469,2.757v6.112c0,.165-.018.313-.033.479a2.723,2.723,0,0,1-1.585,2.246,2.672,2.672,0,0,1-1.178.3Z" transform="translate(-2117.985 -805.063)" fill="#012d5b"></path>
      <path id="Path_95" data-name="Path 95" d="M2211.123,859.058c.984,0,1.341-.31,1.44-1.128v-1.716a.822.822,0,0,0-.019-.214c-.081-.669-.309-.882-1.126-.981-.082,0-.163-.016-.262-.016h-3.6v4.056Zm-5.265,6.019V853.3h5.1c2.259,0,3.321.981,3.321,2.812V857.8a2.81,2.81,0,0,1-3.139,2.962h-3.583v4.316Z" transform="translate(-2148.153 -805.292)" fill="#012d5b"></path>
      <path id="Path_96" data-name="Path 96" d="M2261.763,855v-1.7h6.8V855h-2.55v10.076h-1.72V855Z" transform="translate(-2185.265 -805.292)" fill="#012d5b"></path>
      <path id="Path_97" data-name="Path 97" d="M2285.356,865.077v-8.667c0-2.21.983-3.11,3.369-3.11h4.417V855h-5.086a1.851,1.851,0,0,0-.293.066,1.109,1.109,0,0,0-.7,1.144v2.16h6.049v1.7h-6.049v5Z" transform="translate(-2200.927 -805.291)" fill="#012d5b"></path>
      <path id="Path_98" data-name="Path 98" d="M2315.391,863.36c.083,0,.163.015.246.015h1.83c.085,0,.163-.015.23-.015,1.046-.066,1.357-.394,1.357-1.472v-5.365c0-1.094-.311-1.44-1.34-1.505-.084,0-.162-.016-.247-.016h-1.83c-.083,0-.163.016-.246.016-1.047.066-1.373.411-1.373,1.505v5.332c0,1.1.326,1.44,1.373,1.506m-3.076-1.587V856.6c0-2.305,1.081-3.3,3.583-3.3h1.293c2.5,0,3.583,1,3.583,3.3v5.169c0,2.306-1.081,3.3-3.583,3.3H2315.9c-3.745,0-3.583-3.3-3.583-3.3" transform="translate(-2218.822 -805.291)" fill="#012d5b"></path>
      <path id="Path_99" data-name="Path 99" d="M2346.679,863.36c.082,0,.161.015.245.015h1.83c.083,0,.163-.015.231-.015,1.047-.066,1.357-.394,1.357-1.472v-5.365c0-1.094-.31-1.44-1.341-1.505-.084,0-.164-.016-.247-.016h-1.83c-.084,0-.163.016-.245.016-1.046.066-1.376.411-1.376,1.505v5.332c0,1.1.329,1.44,1.376,1.506m-3.075-1.587V856.6c0-2.305,1.078-3.3,3.582-3.3h1.293c2.5,0,3.58,1,3.58,3.3v5.169c0,2.306-1.08,3.3-3.58,3.3h-1.293c-3.745,0-3.582-3.3-3.582-3.3" transform="translate(-2239.593 -805.291)" fill="#012d5b"></path>
      <path id="Path_100" data-name="Path 100" d="M2380.482,863.376c.751,0,1.178-.44,1.178-1.423v-5.61c0-.08-.018-.163-.018-.246-.079-.817-.343-1.1-1.209-1.1h-3.844v8.375Zm-5.594,1.7V853.3h6a2.509,2.509,0,0,1,2.471,2.732v6.051a4.716,4.716,0,0,1-.032.475,2.88,2.88,0,0,1-2.764,2.518Z" transform="translate(-2260.361 -805.292)" fill="#012d5b"></path>
      <path id="Path_101" data-name="Path 101" d="M2072.744,864.807l-5.827-9.2h-.031v9.2h-1.72v-11.9h1.877l5.732,9.052h.031v-9.052h1.721v11.9Z" transform="translate(-2054.758 -805.031)" fill="#012d5b"></path>
      <path id="Path_102" data-name="Path 102" d="M2140.467,854.6v-1.781h-7.739v8.75a2.844,2.844,0,0,0,3.124,3.189h4.563v-1.72h-4.1c-1.211,0-1.505-.114-1.8-.726a.833.833,0,0,1-.081-.347v-2.329h6.02V857.9h-6v-3.3Z" transform="translate(-2099.607 -804.971)" fill="#012d5b"></path>
      <path id="Path_103" data-name="Path 103" d="M2242.48,854.93v-1.76h-7.735v8.663a2.828,2.828,0,0,0,3.122,3.157h4.563v-1.7h-4.1c-1.21,0-1.507-.113-1.8-.719a.8.8,0,0,1-.084-.343V859.92h6.019V858.2h-6V854.93Z" transform="translate(-2167.33 -805.205)" fill="#012d5b"></path>
      <path id="Path_104" data-name="Path 104" d="M2181.671,748.793a18.371,18.371,0,1,1,18.369-18.37,18.372,18.372,0,0,1-18.369,18.37" transform="translate(-2119.901 -711.526)" fill="#012d5b"></path>
      <path id="Path_105" data-name="Path 105" d="M2181.678,712.054A18.371,18.371,0,0,0,2163.31,730.2h36.735a18.373,18.373,0,0,0-18.366-18.149" transform="translate(-2119.908 -711.528)" fill="#fff"></path>
      <path id="Path_106" data-name="Path 106" d="M2198.365,736.93a9.918,9.918,0,0,0-9.918,9.8h19.834a9.919,9.919,0,0,0-9.916-9.8" transform="translate(-2136.595 -728.041)" fill="#012d5b"></path>
      <path id="Path_107" data-name="Path 107" d="M2198.365,775.935a9.919,9.919,0,0,1-9.918-9.8h19.834a9.92,9.92,0,0,1-9.916,9.8" transform="translate(-2136.595 -747.427)" fill="#fff"></path>
      <path id="Path_108" data-name="Path 108" d="M2180.635,711.54a17.845,17.845,0,1,0,17.844,17.846,17.865,17.865,0,0,0-17.844-17.846m0,36.742a18.9,18.9,0,1,1,18.9-18.9,18.917,18.917,0,0,1-18.9,18.9" transform="translate(-2118.866 -710.488)" fill="#aaaaab"></path>
    </g>
  </g>
</svg>
